<svg width="520" height="140" viewBox="0 0 520 140" xmlns="http://www.w3.org/2000/svg">
  <defs>
    <linearGradient id="ai" x1="0" x2="1">
      <stop offset="0%" stop-color="#22c55e"/>
      <stop offset="50%" stop-color="#60a5fa"/>
      <stop offset="100%" stop-color="#a78bfa"/>
    </linearGradient>
    <filter id="glow">
      <feGaussianBlur stdDeviation="3" result="b"/>
      <feMerge>
        <feMergeNode in="b"/>
        <feMergeNode in="SourceGraphic"/>
      </feMerge>
    </filter>
  </defs>

  <rect x="12" y="12" width="496" height="116" rx="18" fill="#0b1220" stroke="url(#ai)" stroke-width="2"/>
  <g stroke="url(#ai)" stroke-width="2" opacity="0.75">
    <path d="M90 70 L200 40 L320 70 L440 45" />
    <path d="M90 70 L200 100 L320 70 L440 95" />
    <path d="M200 40 L200 100" />
    <path d="M320 70 L440 45" />
    <path d="M320 70 L440 95" />
  </g>

  <g filter="url(#glow)">
    <circle cx="90" cy="70" r="9" fill="#22c55e"/>
    <circle cx="200" cy="40" r="9" fill="#60a5fa"/>
    <circle cx="200" cy="100" r="9" fill="#a78bfa"/>
    <circle cx="320" cy="70" r="9" fill="#60a5fa"/>
    <circle cx="440" cy="45" r="9" fill="#a78bfa"/>
    <circle cx="440" cy="95" r="9" fill="#22c55e"/>
  </g>

  <text x="28" y="46" font-family="Fira Code, monospace" font-size="18" fill="#e5e7eb">AI Systems</text>
  <text x="28" y="74" font-family="Fira Code, monospace" font-size="13" fill="#94a3b8">LLMs • Prompting • Fine-tuning</text>
  <text x="28" y="98" font-family="Fira Code, monospace" font-size="13" fill="#94a3b8">Evaluation • Reliability • Deployment</text>
</svg>
